{
  "accessors": [
    {
      "bufferView": 2,
      "componentType": 5126,
      "count": 65532,
      "max": [
        1.207940936088562,
        1.0726501941680908,
        1.2079105377197266
      ],
      "min": [
        -1.207940936088562,
        -0.9491908550262451,
        -1.2079416513442993
      ],
      "type": "VEC3"
    },
    {
      "bufferView": 2,
      "byteOffset": 786384,
      "componentType": 5126,
      "count": 65532,
      "max": [
        0.996683657169342,
        1.0,
        0.999974250793457
      ],
      "min": [
        -0.9999814033508301,
        -1.0,
        -0.9952442646026611
      ],
      "type": "VEC3"
    },
    {
      "bufferView": 1,
      "componentType": 5126,
      "count": 65532,
      "max": [
        1.000000238418579,
        1.0000001192092896
      ],
      "min": [
        0.0,
        0.0
      ],
      "type": "VEC2"
    },
    {
      "bufferView": 1,
      "byteOffset": 524256,
      "componentType": 5126,
      "count": 65532,
      "max": [
        1.9203888177871704,
        1.9151726961135864
      ],
      "min": [
        -0.6643855571746826,
        -0.9153873920440674
      ],
      "type": "VEC2"
    },
    {
      "bufferView": 0,
      "componentType": 5125,
      "count": 340179,
      "type": "SCALAR"
    },
    {
      "bufferView": 2,
      "byteOffset": 1572768,
      "componentType": 5126,
      "count": 29937,
      "max": [
        1.156859040260315,
        1.0531057119369507,
        1.156833529472351
      ],
      "min": [
        -1.156859040260315,
        -0.9087462425231934,
        -1.1568597555160522
      ],
      "type": "VEC3"
    },
    {
      "bufferView": 2,
      "byteOffset": 1932012,
      "componentType": 5126,
      "count": 29937,
      "max": [
        0.9999815225601196,
        0.9999923706054688,
        0.9998692274093628
      ],
      "min": [
        -0.999518871307373,
        -0.9581685066223145,
        -0.993320643901825
      ],
      "type": "VEC3"
    },
    {
      "bufferView": 1,
      "byteOffset": 1048512,
      "componentType": 5126,
      "count": 29937,
      "max": [
        0.9850262999534607,
        0.8750001192092896
      ],
      "min": [
        0.0,
        0.0
      ],
      "type": "VEC2"
    },
    {
      "bufferView": 1,
      "byteOffset": 1288008,
      "componentType": 5126,
      "count": 29937,
      "max": [
        1.9137394428253174,
        1.0549346208572388
      ],
      "min": [
        -0.65773606300354,
        -0.8945431709289551
      ],
      "type": "VEC2"
    },
    {
      "bufferView": 0,
      "byteOffset": 1360716,
      "componentType": 5125,
      "count": 125655,
      "type": "SCALAR"
    },
    {
      "bufferView": 2,
      "byteOffset": 2291256,
      "componentType": 5126,
      "count": 637,
      "max": [
        0.5016887784004211,
        1.437015414237976,
        0.49301877617836
      ],
      "min": [
        -0.5016887784004211,
        1.1468970775604248,
        -0.49301913380622864
      ],
      "type": "VEC3"
    },
    {
      "bufferView": 2,
      "byteOffset": 2298900,
      "componentType": 5126,
      "count": 637,
      "max": [
        1.0,
        0.9846614003181458,
        0.982719898223877
      ],
      "min": [
        -1.0,
        -0.9846614003181458,
        -0.982719898223877
      ],
      "type": "VEC3"
    },
    {
      "bufferView": 1,
      "byteOffset": 1527504,
      "componentType": 5126,
      "count": 637,
      "max": [
        1.0,
        1.0
      ],
      "min": [
        8.881784197001252e-16,
        2.220446049250313e-16
      ],
      "type": "VEC2"
    },
    {
      "bufferView": 1,
      "byteOffset": 1532600,
      "componentType": 5126,
      "count": 637,
      "max": [
        1.0,
        1.0
      ],
      "min": [
        8.881784197001252e-16,
        2.220446049250313e-16
      ],
      "type": "VEC2"
    },
    {
      "bufferView": 0,
      "byteOffset": 1863336,
      "componentType": 5125,
      "count": 3456,
      "type": "SCALAR"
    },
    {
      "bufferView": 2,
      "byteOffset": 2306544,
      "componentType": 5126,
      "count": 282,
      "max": [
        0.6005247831344604,
        0.06767192482948303,
        0.9383649826049805
      ],
      "min": [
        -0.5914520621299744,
        -0.06044796109199524,
        0.8328108787536621
      ],
      "type": "VEC3"
    },
    {
      "bufferView": 2,
      "byteOffset": 2309928,
      "componentType": 5126,
      "count": 282,
      "max": [
        0.9969480037689209,
        1.0,
        0.9035594463348389
      ],
      "min": [
        -0.9969480037689209,
        -1.0,
        -0.9035594463348389
      ],
      "type": "VEC3"
    },
    {
      "bufferView": 1,
      "byteOffset": 1537696,
      "componentType": 5126,
      "count": 282,
      "max": [
        1.0,
        1.0
      ],
      "min": [
        0.0,
        0.0
      ],
      "type": "VEC2"
    },
    {
      "bufferView": 1,
      "byteOffset": 1539952,
      "componentType": 5126,
      "count": 282,
      "max": [
        1.0,
        1.0
      ],
      "min": [
        0.0,
        0.0
      ],
      "type": "VEC2"
    },
    {
      "bufferView": 0,
      "byteOffset": 1877160,
      "componentType": 5125,
      "count": 1080,
      "type": "SCALAR"
    },
    {
      "bufferView": 2,
      "byteOffset": 2313312,
      "componentType": 5126,
      "count": 2256,
      "max": [
        0.6718257069587708,
        0.31908082962036133,
        1.0765149593353271
      ],
      "min": [
        -0.6718257069587708,
        -0.16801238059997559,
        0.6699811816215515
      ],
      "type": "VEC3"
    },
    {
      "bufferView": 2,
      "byteOffset": 2340384,
      "componentType": 5126,
      "count": 2256,
      "max": [
        0.9995651245117188,
        0.9946143627166748,
        0.9998766183853149
      ],
      "min": [
        -0.9995647668838501,
        -0.9931670427322388,
        -0.9992730617523193
      ],
      "type": "VEC3"
    },
    {
      "bufferView": 1,
      "byteOffset": 1542208,
      "componentType": 5126,
      "count": 2256,
      "max": [
        1.0,
        1.0
      ],
      "min": [
        0.0,
        0.0
      ],
      "type": "VEC2"
    },
    {
      "bufferView": 1,
      "byteOffset": 1560256,
      "componentType": 5126,
      "count": 2256,
      "max": [
        0.0,
        0.0
      ],
      "min": [
        0.0,
        0.0
      ],
      "type": "VEC2"
    },
    {
      "bufferView": 0,
      "byteOffset": 1881480,
      "componentType": 5125,
      "count": 12060,
      "type": "SCALAR"
    },
    {
      "bufferView": 3,
      "componentType": 5126,
      "count": 240,
      "max": [
        8.0
      ],
      "min": [
        0.03333333507180214
      ],
      "type": "SCALAR"
    },
    {
      "bufferView": 4,
      "componentType": 5126,
      "count": 240,
      "max": [
        0.0,
        0.20000000298023224,
        -0.0
      ],
      "min": [
        0.0,
        -0.20000000298023224,
        -0.0
      ],
      "type": "VEC3"
    },
    {
      "bufferView": 3,
      "byteOffset": 960,
      "componentType": 5126,
      "count": 240,
      "max": [
        8.0
      ],
      "min": [
        0.03333333507180214
      ],
      "type": "SCALAR"
    },
    {
      "bufferView": 5,
      "componentType": 5126,
      "count": 240,
      "max": [
        0.0,
        1.0,
        -0.0,
        1.0
      ],
      "min": [
        0.0,
        -0.9999144077301025,
        -0.0,
        4.371138828673793e-08
      ],
      "type": "VEC4"
    },
    {
      "bufferView": 3,
      "byteOffset": 1920,
      "componentType": 5126,
      "count": 241,
      "max": [
        8.033333778381348
      ],
      "min": [
        0.03333333507180214
      ],
      "type": "SCALAR"
    },
    {
      "bufferView": 5,
      "byteOffset": 3840,
      "componentType": 5126,
      "count": 241,
      "max": [
        0.0,
        1.0,
        -0.0,
        1.0
      ],
      "min": [
        0.0,
        -0.9999144077301025,
        -0.0,
        4.371138828673793e-08
      ],
      "type": "VEC4"
    },
    {
      "bufferView": 3,
      "byteOffset": 2884,
      "componentType": 5126,
      "count": 241,
      "max": [
        8.033333778381348
      ],
      "min": [
        0.03333333507180214
      ],
      "type": "SCALAR"
    },
    {
      "bufferView": 4,
      "byteOffset": 2880,
      "componentType": 5126,
      "count": 241,
      "max": [
        0.0,
        0.20000000298023224,
        -0.0
      ],
      "min": [
        0.0,
        -0.20000000298023224,
        -0.0
      ],
      "type": "VEC3"
    }
  ],
  "animations": [
    {
      "channels": [
        {
          "sampler": 0,
          "target": {
            "node": 3,
            "path": "translation"
          }
        },
        {
          "sampler": 1,
          "target": {
            "node": 3,
            "path": "rotation"
          }
        }
      ],
      "name": "Action",
      "samplers": [
        {
          "input": 25,
          "interpolation": "LINEAR",
          "output": 26
        },
        {
          "input": 27,
          "interpolation": "LINEAR",
          "output": 28
        }
      ]
    },
    {
      "channels": [
        {
          "sampler": 0,
          "target": {
            "node": 3,
            "path": "rotation"
          }
        },
        {
          "sampler": 1,
          "target": {
            "node": 3,
            "path": "translation"
          }
        }
      ],
      "name": "SphereAction",
      "samplers": [
        {
          "input": 29,
          "interpolation": "LINEAR",
          "output": 30
        },
        {
          "input": 31,
          "interpolation": "LINEAR",
          "output": 32
        }
      ]
    }
  ],
  "asset": {
    "extras": {
      "author": "BokuNC (https://sketchfab.com/BokuNC)",
      "license": "CC-BY-NC-4.0 (http://creativecommons.org/licenses/by-nc/4.0/)",
      "source": "https://sketchfab.com/3d-models/takodachi-ninomae-inanis-5a6d18d6aa3a4300b72d554cb32c7265",
      "title": "Takodachi - Ninomae Ina'nis"
    },
    "generator": "Sketchfab-10.53.0",
    "version": "2.0"
  },
  "bufferViews": [
    {
      "buffer": 0,
      "byteLength": 1929720,
      "name": "floatBufferViews",
      "target": 34963
    },
    {
      "buffer": 0,
      "byteLength": 1578304,
      "byteOffset": 1929720,
      "byteStride": 8,
      "name": "floatBufferViews",
      "target": 34962
    },
    {
      "buffer": 0,
      "byteLength": 2367456,
      "byteOffset": 3508024,
      "byteStride": 12,
      "name": "floatBufferViews",
      "target": 34962
    },
    {
      "buffer": 0,
      "byteLength": 3848,
      "byteOffset": 5875480,
      "name": "floatBufferViews"
    },
    {
      "buffer": 0,
      "byteLength": 5772,
      "byteOffset": 5879328,
      "byteStride": 12,
      "name": "floatBufferViews"
    },
    {
      "buffer": 0,
      "byteLength": 7696,
      "byteOffset": 5885100,
      "byteStride": 16,
      "name": "floatBufferViews"
    }
  ],
  "buffers": [
    {
      "byteLength": 5892796,
      "uri": "scene.bin"
    }
  ],
  "materials": [
    {
      "doubleSided": true,
      "name": "Multicoated_glass",
      "pbrMetallicRoughness": {
        "baseColorFactor": [
          0.135633,
          0.0761854,
          0.13286800000000001,
          1.0
        ],
        "roughnessFactor": 0.0
      }
    },
    {
      "doubleSided": true,
      "name": "Material.005"
    },
    {
      "doubleSided": true,
      "name": "Material.001"
    },
    {
      "doubleSided": true,
      "name": "Material.006"
    }
  ],
  "meshes": [
    {
      "name": "Object_0",
      "primitives": [
        {
          "attributes": {
            "NORMAL": 1,
            "POSITION": 0,
            "TEXCOORD_0": 2,
            "TEXCOORD_1": 3
          },
          "indices": 4,
          "material": 0,
          "mode": 4
        }
      ]
    },
    {
      "name": "Object_1",
      "primitives": [
        {
          "attributes": {
            "NORMAL": 6,
            "POSITION": 5,
            "TEXCOORD_0": 7,
            "TEXCOORD_1": 8
          },
          "indices": 9,
          "material": 0,
          "mode": 4
        }
      ]
    },
    {
      "name": "Object_2",
      "primitives": [
        {
          "attributes": {
            "NORMAL": 11,
            "POSITION": 10,
            "TEXCOORD_0": 12,
            "TEXCOORD_1": 13
          },
          "indices": 14,
          "material": 1,
          "mode": 4
        }
      ]
    },
    {
      "name": "Object_3",
      "primitives": [
        {
          "attributes": {
            "NORMAL": 16,
            "POSITION": 15,
            "TEXCOORD_0": 17,
            "TEXCOORD_1": 18
          },
          "indices": 19,
          "material": 2,
          "mode": 4
        }
      ]
    },
    {
      "name": "Object_4",
      "primitives": [
        {
          "attributes": {
            "NORMAL": 21,
            "POSITION": 20,
            "TEXCOORD_0": 22,
            "TEXCOORD_1": 23
          },
          "indices": 24,
          "material": 3,
          "mode": 4
        }
      ]
    }
  ],
  "nodes": [
    {
      "children": [
        1
      ],
      "matrix": [
        1.0,
        0.0,
        0.0,
        0.0,
        0.0,
        2.220446049250313e-16,
        -1.0,
        0.0,
        0.0,
        1.0,
        2.220446049250313e-16,
        0.0,
        0.0,
        0.0,
        0.0,
        1.0
      ],
      "name": "Sketchfab_model"
    },
    {
      "children": [
        2
      ],
      "name": "root"
    },
    {
      "children": [
        3
      ],
      "matrix": [
        1.0,
        0.0,
        0.0,
        0.0,
        0.0,
        2.220446049250313e-16,
        1.0,
        0.0,
        0.0,
        -1.0,
        2.220446049250313e-16,
        0.0,
        0.0,
        0.0,
        0.0,
        1.0
      ],
      "name": "GLTF_SceneRootNode"
    },
    {
      "children": [
        4,
        5,
        6,
        7,
        8
      ],
      "name": "Sphere_0"
    },
    {
      "mesh": 0,
      "name": "Object_4"
    },
    {
      "mesh": 1,
      "name": "Object_5"
    },
    {
      "mesh": 2,
      "name": "Object_6"
    },
    {
      "mesh": 3,
      "name": "Object_7"
    },
    {
      "mesh": 4,
      "name": "Object_8"
    }
  ],
  "scene": 0,
  "scenes": [
    {
      "name": "Sketchfab_Scene",
      "nodes": [
        0
      ]
    }
  ]
}
